{
  "accessors": [
    {
      "bufferView": 2,
      "componentType": 5126,
      "count": 2364,
      "max": [
        0.23695500195026398,
        0.012764999642968178,
        0.1546279937028885
      ],
      "min": [
        0.21142500638961792,
        -0.012764999642968178,
        0.13826000690460205
      ],
      "type": "VEC3"
    },
    {
      "bufferView": 2,
      "byteOffset": 28368,
      "componentType": 5126,
      "count": 2364,
      "max": [
        1.0,
        1.0,
        1.0
      ],
      "min": [
        -1.0,
        -1.0,
        -1.0
      ],
      "type": "VEC3"
    },
    {
      "bufferView": 1,
      "componentType": 5126,
      "count": 2364,
      "max": [
        1.0,
        1.0
      ],
      "min": [
        0.0,
        0.0
      ],
      "type": "VEC2"
    },
    {
      "bufferView": 0,
      "componentType": 5125,
      "count": 7584,
      "type": "SCALAR"
    },
    {
      "bufferView": 2,
      "byteOffset": 56736,
      "componentType": 5126,
      "count": 16,
      "max": [
        0.22895100712776184,
        0.008785000070929527,
        0.14038099348545074
      ],
      "min": [
        0.21754300594329834,
        -0.009274999611079693,
        0.13857099413871765
      ],
      "type": "VEC3"
    },
    {
      "bufferView": 0,
      "byteOffset": 30336,
      "componentType": 5125,
      "count": 16,
      "type": "SCALAR"
    },
    {
      "bufferView": 2,
      "byteOffset": 56928,
      "componentType": 5126,
      "count": 32,
      "max": [
        0.23331700265407562,
        0.009127000346779823,
        0.13916799426078796
      ],
      "min": [
        0.21506300568580627,
        -0.009127000346779823,
        0.13916799426078796
      ],
      "type": "VEC3"
    },
    {
      "bufferView": 2,
      "byteOffset": 57312,
      "componentType": 5126,
      "count": 32,
      "max": [
        0.7278916835784912,
        0.7278916835784912,
        -0.6856921315193176
      ],
      "min": [
        -0.7278916835784912,
        -0.7278916835784912,
        -0.6857031583786011
      ],
      "type": "VEC3"
    },
    {
      "bufferView": 1,
      "byteOffset": 18912,
      "componentType": 5126,
      "count": 32,
      "max": [
        0.0,
        0.0
      ],
      "min": [
        0.0,
        0.0
      ],
      "type": "VEC2"
    },
    {
      "bufferView": 0,
      "byteOffset": 30400,
      "componentType": 5125,
      "count": 90,
      "type": "SCALAR"
    },
    {
      "bufferView": 2,
      "byteOffset": 57696,
      "componentType": 5126,
      "count": 1753,
      "max": [
        0.23949700593948364,
        0.02855299971997738,
        0.17129799723625183
      ],
      "min": [
        -0.028553999960422516,
        -0.02855299971997738,
        0.00011899999663000926
      ],
      "type": "VEC3"
    },
    {
      "bufferView": 2,
      "byteOffset": 78732,
      "componentType": 5126,
      "count": 1753,
      "max": [
        1.0,
        1.0,
        1.0
      ],
      "min": [
        -1.0,
        -1.0,
        -0.9998398423194885
      ],
      "type": "VEC3"
    },
    {
      "bufferView": 1,
      "byteOffset": 19168,
      "componentType": 5126,
      "count": 1753,
      "max": [
        1.0,
        1.0
      ],
      "min": [
        -0.04158300161361694,
        -0.09504800289869308
      ],
      "type": "VEC2"
    },
    {
      "bufferView": 0,
      "byteOffset": 30760,
      "componentType": 5125,
      "count": 9570,
      "type": "SCALAR"
    },
    {
      "bufferView": 2,
      "byteOffset": 99768,
      "componentType": 5126,
      "count": 1539,
      "max": [
        0.10292299836874008,
        0.027813000604510307,
        0.18159699440002441
      ],
      "min": [
        -0.027476999908685684,
        -0.027813000604510307,
        0.1308860033750534
      ],
      "type": "VEC3"
    },
    {
      "bufferView": 2,
      "byteOffset": 118236,
      "componentType": 5126,
      "count": 1539,
      "max": [
        0.9999958276748657,
        0.9999260902404785,
        0.9999755620956421
      ],
      "min": [
        -0.9998974800109863,
        -0.9999260902404785,
        -0.9999817609786987
      ],
      "type": "VEC3"
    },
    {
      "bufferView": 1,
      "byteOffset": 33192,
      "componentType": 5126,
      "count": 1539,
      "max": [
        1.0584150552749634,
        0.5416669845581055
      ],
      "min": [
        -9.999999974752427e-07,
        -0.004248000215739012
      ],
      "type": "VEC2"
    },
    {
      "bufferView": 0,
      "byteOffset": 69040,
      "componentType": 5125,
      "count": 8232,
      "type": "SCALAR"
    },
    {
      "bufferView": 2,
      "byteOffset": 136704,
      "componentType": 5126,
      "count": 8,
      "max": [
        0.020992999896407127,
        0.016150999814271927,
        0.1780250072479248
      ],
      "min": [
        0.017562000080943108,
        0.012687000446021557,
        0.17709200084209442
      ],
      "type": "VEC3"
    },
    {
      "bufferView": 2,
      "byteOffset": 136800,
      "componentType": 5126,
      "count": 8,
      "max": [
        -0.26351243257522583,
        -0.004500212147831917,
        0.9646455645561218
      ],
      "min": [
        -0.26351243257522583,
        -0.004500212147831917,
        0.9646455645561218
      ],
      "type": "VEC3"
    },
    {
      "bufferView": 1,
      "byteOffset": 45504,
      "componentType": 5126,
      "count": 8,
      "max": [
        0.0,
        0.0
      ],
      "min": [
        0.0,
        0.0
      ],
      "type": "VEC2"
    },
    {
      "bufferView": 0,
      "byteOffset": 101968,
      "componentType": 5125,
      "count": 18,
      "type": "SCALAR"
    },
    {
      "bufferView": 2,
      "byteOffset": 136896,
      "componentType": 5126,
      "count": 8,
      "max": [
        0.020994000136852264,
        -0.0130390003323555,
        0.1780170053243637
      ],
      "min": [
        0.017562000080943108,
        -0.016503000631928444,
        0.17709100246429443
      ],
      "type": "VEC3"
    },
    {
      "bufferView": 2,
      "byteOffset": 136992,
      "componentType": 5126,
      "count": 8,
      "max": [
        -0.2611931562423706,
        0.004799874499440193,
        0.9652746915817261
      ],
      "min": [
        -0.2611931562423706,
        0.004799874499440193,
        0.9652746915817261
      ],
      "type": "VEC3"
    },
    {
      "bufferView": 1,
      "byteOffset": 45568,
      "componentType": 5126,
      "count": 8,
      "max": [
        0.0,
        0.0
      ],
      "min": [
        0.0,
        0.0
      ],
      "type": "VEC2"
    },
    {
      "bufferView": 0,
      "byteOffset": 102040,
      "componentType": 5125,
      "count": 18,
      "type": "SCALAR"
    },
    {
      "bufferView": 2,
      "byteOffset": 137088,
      "componentType": 5126,
      "count": 104,
      "max": [
        0.02843800000846386,
        0.028432000428438187,
        0.00011899999663000926
      ],
      "min": [
        -0.028433000668883324,
        -0.028432000428438187,
        0.0
      ],
      "type": "VEC3"
    },
    {
      "bufferView": 2,
      "byteOffset": 138336,
      "componentType": 5126,
      "count": 104,
      "max": [
        0.7170366048812866,
        0.7169380187988281,
        -0.6946134567260742
      ],
      "min": [
        -0.7169380187988281,
        -0.7169380187988281,
        -1.0
      ],
      "type": "VEC3"
    },
    {
      "bufferView": 1,
      "byteOffset": 45632,
      "componentType": 5126,
      "count": 104,
      "max": [
        0.40556401014328003,
        1.0
      ],
      "min": [
        0.0,
        0.0
      ],
      "type": "VEC2"
    },
    {
      "bufferView": 0,
      "byteOffset": 102112,
      "componentType": 5125,
      "count": 504,
      "type": "SCALAR"
    }
  ],
  "asset": {
    "extras": {
      "author": "trendforward (https://sketchfab.com/trendforward)",
      "license": "CC-BY-4.0 (http://creativecommons.org/licenses/by/4.0/)",
      "source": "https://sketchfab.com/3d-models/grohe-g-30305000-29403c9ff55147098e5d82ebc446d51c",
      "title": "Grohe G-30305000"
    },
    "generator": "Sketchfab-12.67.0",
    "version": "2.0"
  },
  "bufferViews": [
    {
      "buffer": 0,
      "byteLength": 104128,
      "name": "floatBufferViews",
      "target": 34963
    },
    {
      "buffer": 0,
      "byteLength": 46464,
      "byteOffset": 104128,
      "byteStride": 8,
      "name": "floatBufferViews",
      "target": 34962
    },
    {
      "buffer": 0,
      "byteLength": 139584,
      "byteOffset": 150592,
      "byteStride": 12,
      "name": "floatBufferViews",
      "target": 34962
    }
  ],
  "buffers": [
    {
      "byteLength": 290176,
      "uri": "scene.bin"
    }
  ],
  "materials": [
    {
      "doubleSided": true,
      "name": "Aerator_Chrome.004",
      "pbrMetallicRoughness": {
        "roughnessFactor": 0.0
      }
    },
    {
      "doubleSided": true,
      "name": "Aerator_Grey.004",
      "pbrMetallicRoughness": {
        "baseColorFactor": [
          0.0,
          0.0,
          0.0,
          1.0
        ],
        "metallicFactor": 0.0
      }
    },
    {
      "doubleSided": true,
      "name": "Chrome",
      "pbrMetallicRoughness": {
        "roughnessFactor": 0.0
      }
    },
    {
      "doubleSided": true,
      "name": "Chrome.003",
      "pbrMetallicRoughness": {
        "roughnessFactor": 0.0
      }
    },
    {
      "doubleSided": true,
      "name": "Cold",
      "pbrMetallicRoughness": {
        "baseColorFactor": [
          0.0,
          0.2618891781927143,
          1.0,
          1.0
        ],
        "metallicFactor": 0.0,
        "roughnessFactor": 0.6
      }
    },
    {
      "doubleSided": true,
      "name": "Hot.002",
      "pbrMetallicRoughness": {
        "baseColorFactor": [
          1.0,
          0.0,
          0.0,
          1.0
        ],
        "metallicFactor": 0.0,
        "roughnessFactor": 0.6
      }
    },
    {
      "doubleSided": true,
      "name": "Matt_Black",
      "pbrMetallicRoughness": {
        "baseColorFactor": [
          0.0,
          0.0,
          0.0,
          1.0
        ],
        "metallicFactor": 0.0
      }
    }
  ],
  "meshes": [
    {
      "name": "Object_0",
      "primitives": [
        {
          "attributes": {
            "NORMAL": 1,
            "POSITION": 0,
            "TEXCOORD_0": 2
          },
          "indices": 3,
          "material": 0,
          "mode": 4
        }
      ]
    },
    {
      "name": "Object_1",
      "primitives": [
        {
          "attributes": {
            "POSITION": 4
          },
          "indices": 5,
          "material": 1,
          "mode": 1
        }
      ]
    },
    {
      "name": "Object_2",
      "primitives": [
        {
          "attributes": {
            "NORMAL": 7,
            "POSITION": 6,
            "TEXCOORD_0": 8
          },
          "indices": 9,
          "material": 1,
          "mode": 4
        }
      ]
    },
    {
      "name": "Object_3",
      "primitives": [
        {
          "attributes": {
            "NORMAL": 11,
            "POSITION": 10,
            "TEXCOORD_0": 12
          },
          "indices": 13,
          "material": 2,
          "mode": 4
        }
      ]
    },
    {
      "name": "Object_4",
      "primitives": [
        {
          "attributes": {
            "NORMAL": 15,
            "POSITION": 14,
            "TEXCOORD_0": 16
          },
          "indices": 17,
          "material": 3,
          "mode": 4
        }
      ]
    },
    {
      "name": "Object_5",
      "primitives": [
        {
          "attributes": {
            "NORMAL": 19,
            "POSITION": 18,
            "TEXCOORD_0": 20
          },
          "indices": 21,
          "material": 4,
          "mode": 4
        }
      ]
    },
    {
      "name": "Object_6",
      "primitives": [
        {
          "attributes": {
            "NORMAL": 23,
            "POSITION": 22,
            "TEXCOORD_0": 24
          },
          "indices": 25,
          "material": 5,
          "mode": 4
        }
      ]
    },
    {
      "name": "Object_7",
      "primitives": [
        {
          "attributes": {
            "NORMAL": 27,
            "POSITION": 26,
            "TEXCOORD_0": 28
          },
          "indices": 29,
          "material": 6,
          "mode": 4
        }
      ]
    }
  ],
  "nodes": [
    {
      "children": [
        1
      ],
      "matrix": [
        1.0,
        0.0,
        0.0,
        0.0,
        0.0,
        2.220446049250313e-16,
        -1.0,
        0.0,
        0.0,
        1.0,
        2.220446049250313e-16,
        0.0,
        0.0,
        0.0,
        0.0,
        1.0
      ],
      "name": "Sketchfab_model"
    },
    {
      "children": [
        2,
        3,
        4,
        5,
        6,
        7,
        8,
        9
      ],
      "name": "Grohe G-30305000.obj.cleaner.materialmerger.gles"
    },
    {
      "mesh": 0,
      "name": "Object_2"
    },
    {
      "mesh": 1,
      "name": "Object_3"
    },
    {
      "mesh": 2,
      "name": "Object_4"
    },
    {
      "mesh": 3,
      "name": "Object_5"
    },
    {
      "mesh": 4,
      "name": "Object_6"
    },
    {
      "mesh": 5,
      "name": "Object_7"
    },
    {
      "mesh": 6,
      "name": "Object_8"
    },
    {
      "mesh": 7,
      "name": "Object_9"
    }
  ],
  "scene": 0,
  "scenes": [
    {
      "name": "Sketchfab_Scene",
      "nodes": [
        0
      ]
    }
  ]
}
