{
  "accessors": [
    {
      "bufferView": 2,
      "componentType": 5126,
      "count": 28093,
      "max": [
        0.04343034327030182,
        0.019261203706264496,
        0.04104183614253998
      ],
      "min": [
        -0.04343034327030182,
        -0.017175685614347458,
        -0.0547180250287056
      ],
      "type": "VEC3"
    },
    {
      "bufferView": 2,
      "byteOffset": 337116,
      "componentType": 5126,
      "count": 28093,
      "max": [
        0.999979555606842,
        0.9999436140060425,
        0.9998262524604797
      ],
      "min": [
        -0.9999260902404785,
        -0.9994410276412964,
        -0.9998605251312256
      ],
      "type": "VEC3"
    },
    {
      "bufferView": 1,
      "componentType": 5126,
      "count": 28093,
      "max": [
        0.9989373087882996,
        0.9999972581863403
      ],
      "min": [
        1.0814402230607811e-05,
        8.661234460305423e-05
      ],
      "type": "VEC2"
    },
    {
      "bufferView": 1,
      "byteOffset": 224744,
      "componentType": 5126,
      "count": 28093,
      "max": [
        0.9989373087882996,
        0.9999972581863403
      ],
      "min": [
        1.0814402230607811e-05,
        8.661234460305423e-05
      ],
      "type": "VEC2"
    },
    {
      "bufferView": 1,
      "byteOffset": 449488,
      "componentType": 5126,
      "count": 28093,
      "max": [
        0.9989373087882996,
        0.9999972581863403
      ],
      "min": [
        1.0814402230607811e-05,
        8.661234460305423e-05
      ],
      "type": "VEC2"
    },
    {
      "bufferView": 0,
      "componentType": 5125,
      "count": 147117,
      "type": "SCALAR"
    }
  ],
  "asset": {
    "extras": {
      "author": "Don B (https://sketchfab.com/nomomo)",
      "license": "CC-BY-NC-SA-4.0 (http://creativecommons.org/licenses/by-nc-sa/4.0/)",
      "source": "https://sketchfab.com/3d-models/garbage-8e0b5ac5e40f4d0d817b360f284e7096",
      "title": "gARbage"
    },
    "generator": "Sketchfab-12.65.0",
    "version": "2.0"
  },
  "bufferViews": [
    {
      "buffer": 0,
      "byteLength": 588468,
      "name": "floatBufferViews",
      "target": 34963
    },
    {
      "buffer": 0,
      "byteLength": 674232,
      "byteOffset": 588468,
      "byteStride": 8,
      "name": "floatBufferViews",
      "target": 34962
    },
    {
      "buffer": 0,
      "byteLength": 674232,
      "byteOffset": 1262700,
      "byteStride": 12,
      "name": "floatBufferViews",
      "target": 34962
    }
  ],
  "buffers": [
    {
      "byteLength": 1936932,
      "uri": "scene.bin"
    }
  ],
  "extensionsUsed": [
    "KHR_materials_unlit"
  ],
  "images": [
    {
      "uri": "textures/material_0_baseColor.jpeg"
    }
  ],
  "materials": [
    {
      "extensions": {
        "KHR_materials_unlit": {}
      },
      "name": "material_0",
      "pbrMetallicRoughness": {
        "baseColorTexture": {
          "index": 0
        },
        "metallicFactor": 0.0
      }
    }
  ],
  "meshes": [
    {
      "name": "Object_0",
      "primitives": [
        {
          "attributes": {
            "NORMAL": 1,
            "POSITION": 0,
            "TEXCOORD_0": 2,
            "TEXCOORD_1": 3,
            "TEXCOORD_2": 4
          },
          "indices": 5,
          "material": 0,
          "mode": 4
        }
      ]
    }
  ],
  "nodes": [
    {
      "children": [
        1
      ],
      "matrix": [
        1.0,
        0.0,
        0.0,
        0.0,
        0.0,
        2.220446049250313e-16,
        -1.0,
        0.0,
        0.0,
        1.0,
        2.220446049250313e-16,
        0.0,
        0.0,
        0.0,
        0.0,
        1.0
      ],
      "name": "Sketchfab_model"
    },
    {
      "children": [
        2
      ],
      "name": "root"
    },
    {
      "children": [
        3
      ],
      "matrix": [
        1.0,
        0.0,
        0.0,
        0.0,
        0.0,
        2.220446049250313e-16,
        1.0,
        0.0,
        0.0,
        -1.0,
        2.220446049250313e-16,
        0.0,
        0.0,
        0.0,
        0.0,
        1.0
      ],
      "name": "GLTF_SceneRootNode"
    },
    {
      "children": [
        4
      ],
      "name": "_0"
    },
    {
      "mesh": 0,
      "name": "Object_4"
    }
  ],
  "samplers": [
    {
      "magFilter": 9729,
      "minFilter": 9987,
      "wrapS": 10497,
      "wrapT": 10497
    }
  ],
  "scene": 0,
  "scenes": [
    {
      "name": "Sketchfab_Scene",
      "nodes": [
        0
      ]
    }
  ],
  "textures": [
    {
      "sampler": 0,
      "source": 0
    }
  ]
}
